<svg viewBox="0 0 1024 1024" version="1.1" xmlns="http://www.w3.org/2000/svg"><path d="M512 64C264.6 64 64 264.6 64 512s200.6 448 448 448 448-200.6 448-448S759.4 64 512 64zm0 820c-205.4 0-372-166.6-372-372s166.6-372 372-372 372 166.6 372 372-166.6 372-372 372z"/><path d="M686.4 377.6c-12.8-12.8-33.6-12.8-46.4 0l-80 80c-12.8 12.8-12.8 33.6 0 46.4 6.4 6.4 14.4 9.6 23.2 9.6 8.8 0 16.8-3.2 23.2-9.6l80-80c12.8-12.8 12.8-33.6 0-46.4z"/><path d="M446.4 377.6c-12.8-12.8-33.6-12.8-46.4 0l-80 80c-12.8 12.8-12.8 33.6 0 46.4 6.4 6.4 14.4 9.6 23.2 9.6 8.8 0 16.8-3.2 23.2-9.6l80-80c12.8-12.8 12.8-33.6 0-46.4z"/><path d="M512 640c-123.2 0-224-100.8-224-224s100.8-224 224-224 224 100.8 224 224-100.8 224-224 224zm0-384c-88.2 0-160 71.8-160 160s71.8 160 160 160 160-71.8 160-160-71.8-160-160-160z"/><path d="M544 544h-64v-64c0-17.6-14.4-32-32-32s-32 14.4-32 32v96c0 17.6 14.4 32 32 32h96c17.6 0 32-14.4 32-32s-14.4-32-32-32z"/></svg>